<?xml version="1.0" standalone="no"?><!DOCTYPE svg PUBLIC "-//W3C//DTD SVG 1.1//EN" "http://www.w3.org/Graphics/SVG/1.1/DTD/svg11.dtd"><svg t="1667876050776" class="icon" viewBox="0 0 1024 1024" version="1.1" xmlns="http://www.w3.org/2000/svg" p-id="658" xmlns:xlink="http://www.w3.org/1999/xlink" width="128" height="128"><path d="M252.8 840c-65.6 0-119.2-54.4-119.2-120s53.6-120 119.2-120h410.4c65.6 0 119.2 54.4 119.2 120s-53.6 120-119.2 120H252.8z" fill="#FFFFFF" p-id="659"></path><path d="M663.2 848H252.8c-70.4 0-127.2-57.6-127.2-128s56.8-128 127.2-128h410.4c70.4 0 127.2 57.6 127.2 128s-56.8 128-127.2 128zM252.8 608c-61.6 0-111.2 50.4-111.2 112s49.6 112 111.2 112h410.4c61.6 0 111.2-50.4 111.2-112s-49.6-112-111.2-112H252.8z" fill="#3D3D3D" p-id="660"></path><path d="M200 655.2V336h80v40.8s72 16 76 72c-4 4-76 0-76 0V528h48v-32h32v108l-160 51.2z" fill="#FFFFFF" p-id="661"></path><path d="M200 663.2c-1.6 0-3.2-0.8-4.8-1.6-2.4-1.6-3.2-4-3.2-6.4V336c0-4.8 3.2-8 8-8h80c4.8 0 8 3.2 8 8v34.4c18.4 5.6 72 25.6 76 77.6 0 2.4-0.8 4.8-2.4 6.4-2.4 2.4-6.4 6.4-73.6 2.4V520h32v-24c0-4.8 3.2-8 8-8h32c4.8 0 8 3.2 8 8v108c0 3.2-2.4 6.4-5.6 8l-160 51.2H200zM208 344v300l144-46.4V504h-16v24c0 4.8-3.2 8-8 8h-48c-4.8 0-8-3.2-8-8v-79.2c0-2.4 0.8-4 2.4-5.6 1.6-1.6 4-2.4 5.6-2.4 24.8 1.6 54.4 2.4 66.4 1.6-8.8-44-68-57.6-68.8-57.6-4-0.8-6.4-4-6.4-8V344H208z" fill="#3D3D3D" p-id="662"></path><path d="M284.8 840c-65.6 0-119.2-54.4-119.2-120s53.6-120 119.2-120h410.4c65.6 0 119.2 54.4 119.2 120s-53.6 120-119.2 120H284.8z" fill="#FFFFFF" p-id="663"></path><path d="M695.2 848H284.8c-70.4 0-127.2-57.6-127.2-128s56.8-128 127.2-128h410.4c70.4 0 127.2 57.6 127.2 128s-56.8 128-127.2 128zM284.8 608c-61.6 0-111.2 50.4-111.2 112s49.6 112 111.2 112h410.4c61.6 0 111.2-50.4 111.2-112s-49.6-112-111.2-112H284.8z" fill="#3D3D3D" p-id="664"></path><path d="M316.8 840c-65.6 0-119.2-54.4-119.2-120s53.6-120 119.2-120h410.4c65.6 0 119.2 54.4 119.2 120s-53.6 120-119.2 120H316.8z" fill="#FFFFFF" p-id="665"></path><path d="M727.2 848H316.8c-70.4 0-127.2-57.6-127.2-128s56.8-128 127.2-128h410.4c70.4 0 127.2 57.6 127.2 128s-56.8 128-127.2 128zM316.8 608c-61.6 0-111.2 50.4-111.2 112s49.6 112 111.2 112h410.4c61.6 0 111.2-50.4 111.2-112s-49.6-112-111.2-112H316.8z" fill="#3D3D3D" p-id="666"></path><path d="M840 632V221.6s-96 40-96 147.2V600" fill="#FFFFFF" p-id="667"></path><path d="M848 632h-16V234.4c-24 13.6-80 54.4-80 134.4V600h-16V368.8c0-111.2 100-154.4 100.8-154.4 2.4-0.8 5.6-0.8 7.2 0.8 2.4 1.6 3.2 4 3.2 6.4V632z" fill="#3D3D3D" p-id="668"></path><path d="M279.2 604s204-141.6 219.2-151.2c14.4-9.6 58.4-5.6 78.4 0-6.4 41.6-20.8 60-47.2 77.6-20.8 13.6-184 120.8-184 120.8" fill="#FFFFFF" p-id="669"></path><path d="M349.6 657.6l-8.8-13.6s163.2-107.2 184-120.8c22.4-14.4 36-29.6 42.4-64.8-21.6-4.8-55.2-5.6-64.8 0.8-14.4 9.6-216.8 149.6-218.4 151.2l-8.8-12.8c8-5.6 204-141.6 219.2-151.2 18.4-12 67.2-5.6 84.8-0.8 4 0.8 6.4 4.8 5.6 8.8-7.2 45.6-24 65.6-50.4 83.2-21.6 12.8-184.8 120-184.8 120z" fill="#3D3D3D" p-id="670"></path><path d="M348 840c-65.6 0-119.2-54.4-119.2-120s53.6-120 119.2-120h410.4c65.6 0 119.2 54.4 119.2 120s-53.6 120-119.2 120H348z" fill="#42b883" p-id="671" data-spm-anchor-id="a313x.7781069.0.i0" class="selected"></path><path d="M758.4 848H348c-70.4 0-127.2-57.6-127.2-128s56.8-128 127.2-128h410.4c70.4 0 127.2 57.6 127.2 128s-56.8 128-127.2 128zM348 608c-61.6 0-111.2 50.4-111.2 112s49.6 112 111.2 112h410.4c61.6 0 111.2-50.4 111.2-112s-49.6-112-111.2-112H348z" fill="#3D3D3D" p-id="672"></path><path d="M632 696h-48v-48h-48v48h-48v48h48v48h48v-48h48z" fill="#FFFFFF" p-id="673"></path></svg>